<?xml version="1.0" encoding="utf-8"?>
<!-- Generator: Adobe Illustrator 24.0.1, SVG Export Plug-In . SVG Version: 6.00 Build 0)  -->
<svg version="1.1" id="Capa_1" xmlns="http://www.w3.org/2000/svg" xmlns:xlink="http://www.w3.org/1999/xlink" x="0px" y="0px"
	 viewBox="0 0 50 50" style="enable-background:new 0 0 50 50;" xml:space="preserve">
<g>
	<path d="M20.72,49.39c-3.57,0-6.47-2.9-6.47-6.47c0-3.57,2.9-6.47,6.47-6.47s6.47,2.9,6.47,6.47
		C27.19,46.49,24.28,49.39,20.72,49.39z M20.72,40.72c-1.21,0-2.2,0.99-2.2,2.2c0,1.21,0.99,2.2,2.2,2.2c1.21,0,2.2-0.99,2.2-2.2
		C22.92,41.7,21.93,40.72,20.72,40.72z"/>
</g>
<g>
	<path d="M36.55,49.39c-3.57,0-6.47-2.9-6.47-6.47c0-3.57,2.9-6.47,6.47-6.47c3.57,0,6.47,2.9,6.47,6.47
		C43.02,46.49,40.12,49.39,36.55,49.39z M36.55,40.72c-1.21,0-2.2,0.99-2.2,2.2c0,1.21,0.99,2.2,2.2,2.2s2.2-0.99,2.2-2.2
		C38.75,41.7,37.77,40.72,36.55,40.72z"/>
</g>
<g>
	<path d="M35.54,33.12H20.61c-8.51,0-10.49-9.23-12.08-16.64c-0.3-1.38-0.58-2.69-0.89-3.94C6.33,7.28,5.36,6.89,3.41,6.11
		c-0.7-0.28-1.49-0.6-2.4-1.1c-1.03-0.57-1.4-1.87-0.83-2.9c0.57-1.03,1.87-1.4,2.9-0.83C3.76,1.64,4.39,1.9,5,2.14
		c3.08,1.23,5.07,2.48,6.79,9.35c0.33,1.32,0.63,2.72,0.92,4.08c1.72,8.01,3.19,13.27,7.9,13.27h14.93c3.69,0,3.92-0.4,6.13-4.19
		c0.12-0.2,0.74-1.44,1.3-2.53c0.8-1.57,1.79-3.53,2.4-4.66c0.44-0.83,0.48-1.63,0.11-2.25c-0.41-0.68-1.23-1.07-2.26-1.07H17.39
		c-1.18,0-2.14-0.96-2.14-2.14s0.96-2.14,2.14-2.14h25.83c2.53,0,4.74,1.17,5.92,3.14c1.16,1.93,1.16,4.29,0,6.46
		c-0.58,1.09-1.56,3.03-2.36,4.58c-0.91,1.79-1.26,2.49-1.41,2.74C42.82,31.18,41.45,33.12,35.54,33.12z"/>
</g>
</svg>
