<?xml version="1.0" encoding="utf-8"?>
<!-- Generator: Adobe Illustrator 24.0.1, SVG Export Plug-In . SVG Version: 6.00 Build 0)  -->
<svg version="1.1" id="Capa_1" xmlns="http://www.w3.org/2000/svg" xmlns:xlink="http://www.w3.org/1999/xlink" x="0px" y="0px"
	 viewBox="0 0 50 50" enable-background="new 0 0 50 50" xml:space="preserve">
<g>
	<g>
		<path d="M41.78,40.63H8.45c-4.59,0-8.33-3.74-8.33-8.33V17.14c0-4.6,3.74-8.33,8.33-8.33h33.33c4.59,0,8.33,3.74,8.33,8.33V32.3
			C50.12,36.89,46.38,40.63,41.78,40.63z M8.45,13.36c-2.09,0-3.79,1.7-3.79,3.79V32.3c0,2.09,1.7,3.79,3.79,3.79h33.33
			c2.09,0,3.79-1.7,3.79-3.79V17.14c0-2.09-1.7-3.79-3.79-3.79H8.45z"/>
	</g>
	<g>
		<path d="M25.37,31.55c-1.75,0-3.49-0.66-4.82-1.99L9.13,18.26c-0.89-0.88-0.9-2.32-0.02-3.21c0.88-0.89,2.32-0.9,3.21-0.02
			l11.43,11.31c0.9,0.89,2.34,0.9,3.22,0.01l10.94-10.81c0.89-0.88,2.33-0.87,3.21,0.02c0.88,0.89,0.87,2.33-0.02,3.21l-10.93,10.8
			C28.86,30.89,27.12,31.55,25.37,31.55z"/>
	</g>
</g>
</svg>
