<?xml version="1.0" encoding="utf-8"?>
<!-- Generator: Adobe Illustrator 24.0.1, SVG Export Plug-In . SVG Version: 6.00 Build 0)  -->
<svg version="1.1" id="Capa_1" xmlns="http://www.w3.org/2000/svg" xmlns:xlink="http://www.w3.org/1999/xlink" x="0px" y="0px"
	 viewBox="0 0 50 50" style="enable-background:new 0 0 50 50;" xml:space="preserve">
<g>
	<g>
		<path d="M25.18,50h-0.35c-0.13,0-13.07-0.05-17.34-4.66c-1.03-1.11-1.52-2.43-1.41-3.83c0.05-0.71,0.09-1.38,0.13-2.01
			c0.2-3.56,0.41-7.23,4.41-8.23c2.74-0.68,5.11-2.12,6.87-3.3c1.01-0.67,2.37-0.4,3.04,0.61c0.67,1.01,0.4,2.37-0.61,3.04
			c-2.06,1.37-4.85,3.06-8.24,3.9c-0.69,0.17-0.89,0.61-1.09,4.22c-0.04,0.65-0.08,1.35-0.13,2.1c-0.01,0.07-0.02,0.22,0.25,0.51
			c1.77,1.92,8.86,3.25,14.12,3.25h0.35c5.25,0,12.34-1.33,14.12-3.25c0.27-0.29,0.26-0.44,0.25-0.51c-0.06-0.74-0.1-1.44-0.13-2.09
			c-0.2-3.61-0.4-4.05-1.09-4.22c-3.39-0.85-6.19-2.53-8.24-3.9c-1.01-0.67-1.28-2.03-0.61-3.04c0.67-1.01,2.04-1.28,3.04-0.61
			c1.76,1.18,4.14,2.61,6.87,3.3c4,1,4.21,4.68,4.41,8.24c0.04,0.62,0.07,1.29,0.13,2c0.11,1.39-0.38,2.71-1.41,3.83
			C38.25,49.95,25.31,50,25.18,50z"/>
	</g>
	<g>
		<path d="M25,28.4c-5.34,0-11.55-6.15-11.55-14.07c0-4.92,0-14.07,11.55-14.07s11.55,9.16,11.55,14.07
			C36.55,22.25,30.34,28.4,25,28.4z M25,4.64c-6.17,0-7.16,2.85-7.16,9.68c0,5.62,4.28,9.68,7.16,9.68s7.16-4.07,7.16-9.68
			C32.16,7.5,31.17,4.64,25,4.64z"/>
	</g>
</g>
<g>
</g>
<g>
</g>
<g>
</g>
<g>
</g>
<g>
</g>
<g>
</g>
<g>
</g>
<g>
</g>
<g>
</g>
<g>
</g>
<g>
</g>
<g>
</g>
<g>
</g>
<g>
</g>
<g>
</g>
</svg>
